<svg xmlns="http://www.w3.org/2000/svg" xmlns:xlink="http://www.w3.org/1999/xlink" width="300" height="200" viewBox="0 0 300 200">
  <defs>
    <clipPath id="clip-path">
      <rect id="Rectangle_49" data-name="Rectangle 49" width="300" height="200" transform="translate(949 1369)" fill="#008578" stroke="#707070" stroke-width="1"/>
    </clipPath>
  </defs>
  <g id="Mask_Group_6" data-name="Mask Group 6" transform="translate(-949 -1369)" clip-path="url(#clip-path)">
    <g id="coins" transform="translate(991.857 1369)">
      <path id="Path_119" data-name="Path 119" d="M135.714,200A64.285,64.285,0,1,1,200,135.714,64.359,64.359,0,0,1,135.714,200Zm0-121.428a57.143,57.143,0,1,0,57.144,57.142A57.208,57.208,0,0,0,135.714,78.572Zm0,0" fill="#008578"/>
      <path id="Path_120" data-name="Path 120" d="M142.856,160.714H121.428a3.571,3.571,0,0,1,0-7.143h21.428a7.143,7.143,0,0,0,0-14.285H128.571a14.285,14.285,0,0,1,0-28.571H150a3.571,3.571,0,1,1,0,7.143H128.571a7.143,7.143,0,1,0,0,14.285h14.285a14.285,14.285,0,0,1,0,28.571Zm0,0" fill="#008578"/>
      <path id="Path_121" data-name="Path 121" d="M135.714,167.857a3.569,3.569,0,0,1-3.571-3.571V107.143a3.571,3.571,0,1,1,7.143,0v57.144A3.57,3.57,0,0,1,135.714,167.857Zm0,0" fill="#008578"/>
      <path id="Path_122" data-name="Path 122" d="M89.285,139.286a3.57,3.57,0,0,1-3.571-3.572,50.055,50.055,0,0,1,50-50,3.571,3.571,0,1,1,0,7.143,42.9,42.9,0,0,0-42.856,42.856A3.572,3.572,0,0,1,89.285,139.286Zm0,0" fill="#008578"/>
      <path id="Path_123" data-name="Path 123" d="M135.714,185.715a3.571,3.571,0,0,1,0-7.143,42.907,42.907,0,0,0,42.858-42.858,3.571,3.571,0,0,1,7.143,0A50.056,50.056,0,0,1,135.714,185.715Zm0,0" fill="#008578"/>
      <path id="Path_124" data-name="Path 124" d="M103.571,71.429H25a3.572,3.572,0,0,1-3.572-3.572V46.429A3.572,3.572,0,0,1,25,42.856h78.57a3.572,3.572,0,0,1,3.572,3.572V67.857A3.572,3.572,0,0,1,103.571,71.429Zm-75-7.143H100V50H28.571Zm0,0" fill="#008578"/>
      <path id="Path_125" data-name="Path 125" d="M114.285,50H35.714a3.569,3.569,0,0,1-3.571-3.571V25a3.57,3.57,0,0,1,3.571-3.572h78.572A3.572,3.572,0,0,1,117.858,25V46.429A3.57,3.57,0,0,1,114.285,50Zm-75-7.143h71.429V28.571H39.286Zm0,0" fill="#008578"/>
      <path id="Path_126" data-name="Path 126" d="M103.571,28.571H25A3.57,3.57,0,0,1,21.428,25V3.572A3.571,3.571,0,0,1,25,0h78.57a3.571,3.571,0,0,1,3.572,3.572V25A3.57,3.57,0,0,1,103.571,28.571Zm-75-7.143H100V7.143H28.571Zm0,0" fill="#008578"/>
      <path id="Path_127" data-name="Path 127" d="M96.632,92.857H35.714a3.57,3.57,0,0,1-3.571-3.572V67.857a3.569,3.569,0,0,1,3.571-3.571h78.572a3.57,3.57,0,0,1,3.572,3.571V78.964a3.576,3.576,0,0,1-2.312,3.343,56.731,56.731,0,0,0-16.614,9.711A3.57,3.57,0,0,1,96.632,92.857ZM39.286,85.715h56.06a63.742,63.742,0,0,1,15.369-9.168V71.429H39.286Zm75-6.75h.036Zm0,0" fill="#008578"/>
      <path id="Path_128" data-name="Path 128" d="M80.429,114.285H25a3.57,3.57,0,0,1-3.572-3.571V89.285A3.57,3.57,0,0,1,25,85.715H96.632a3.57,3.57,0,0,1,2.3,6.3,57.563,57.563,0,0,0-15.25,20.173A3.565,3.565,0,0,1,80.429,114.285Zm-51.858-7.143h49.6A65.022,65.022,0,0,1,87.85,92.857H28.571Zm0,0" fill="#008578"/>
      <path id="Path_129" data-name="Path 129" d="M75.178,135.714H35.714a3.569,3.569,0,0,1-3.571-3.571V110.715a3.569,3.569,0,0,1,3.571-3.572H80.429a3.574,3.574,0,0,1,3.253,5.047,56.6,56.6,0,0,0-4.936,20.164A3.574,3.574,0,0,1,75.178,135.714Zm-35.892-7.143H71.9a63.871,63.871,0,0,1,3.25-14.285H39.286Zm0,0" fill="#008578"/>
      <path id="Path_130" data-name="Path 130" d="M77.679,157.142H25a3.57,3.57,0,0,1-3.572-3.571V132.143A3.572,3.572,0,0,1,25,128.571H75.178a3.568,3.568,0,0,1,3.569,3.778l-.065.986c-.052.793-.11,1.576-.11,2.379a57.068,57.068,0,0,0,2.521,16.808,3.569,3.569,0,0,1-3.414,4.62ZM28.571,150H73.033a64.066,64.066,0,0,1-1.6-14.285H28.571Zm0,0" fill="#008578"/>
      <path id="Path_131" data-name="Path 131" d="M89.468,178.572H35.714A3.57,3.57,0,0,1,32.143,175V153.571A3.57,3.57,0,0,1,35.714,150H77.679a3.57,3.57,0,0,1,3.414,2.523,56.644,56.644,0,0,0,11.1,20.164,3.572,3.572,0,0,1-2.72,5.886Zm-50.182-7.143h43a63.5,63.5,0,0,1-7.19-14.287H39.286Zm0,0" fill="#008578"/>
      <path id="Path_132" data-name="Path 132" d="M210.713,200H3.572a3.571,3.571,0,1,1,0-7.143H210.713a3.571,3.571,0,1,1,0,7.143Zm0,0" fill="#008578"/>
      <path id="Path_133" data-name="Path 133" d="M135.714,200H25a3.572,3.572,0,0,1-3.572-3.572V175A3.57,3.57,0,0,1,25,171.429H89.468a3.573,3.573,0,0,1,2.72,1.264,57.1,57.1,0,0,0,43.525,20.164,3.571,3.571,0,1,1,0,7.143ZM28.571,192.857h77.722a64.609,64.609,0,0,1-18.446-14.282l-59.275,0Zm0,0" fill="#008578"/>
    </g>
  </g>
</svg>
