<?xml version="1.0" encoding="UTF-8"?>
<!DOCTYPE svg PUBLIC "-//W3C//DTD SVG 1.1//EN" "http://www.w3.org/Graphics/SVG/1.1/DTD/svg11.dtd">
<!-- Creator: CorelDRAW 2018 (64 Bit) -->
<svg xmlns="http://www.w3.org/2000/svg" xml:space="preserve" width="128.023mm" height="24.916mm" version="1.1" style="shape-rendering:geometricPrecision; text-rendering:geometricPrecision; image-rendering:optimizeQuality; fill-rule:evenodd; clip-rule:evenodd"
viewBox="0 0 12802.3 2491.6"
 xmlns:xlink="http://www.w3.org/1999/xlink">
 <defs>
  <style type="text/css">
   <![CDATA[
    .fil0 {fill:white;fill-rule:nonzero}
   ]]>
  </style>
 </defs>
 <g id="Camada_x0020_1">
  <metadata id="CorelCorpID_0Corel-Layer"/>
  <g id="_1429667765328">
   <path class="fil0" d="M1296.69 1231.71c0,222.17 -50.43,399.81 -151.29,533.39 -100.41,133.57 -236.71,200.36 -408,200.36 -145.38,0 -263.06,-50.43 -352.56,-151.75l0 677.87 -384.82 0 0 -1992.71 356.65 0 13.63 140.84c93.14,-112.22 214.45,-168.1 364.83,-168.1 177.19,0 315.31,65.88 413.9,197.18 98.14,131.3 147.66,312.13 147.66,542.93l0 19.99zm-384.82 -29.08c0,-134.48 -23.63,-238.07 -71.33,-310.76 -47.25,-73.15 -116.31,-109.5 -206.72,-109.5 -120.86,0 -203.55,46.34 -248.98,138.57l0 591.09c46.8,94.96 130.85,142.66 251.7,142.66 183.55,0 275.33,-150.83 275.33,-452.06zm1432.51 -344.38c-52.24,-6.82 -98.13,-10.45 -138.11,-10.45 -145.85,0 -241.26,49.06 -286.24,147.65l0 942.75 -384.82 0 0 -1439.33 363.47 0 10.45 170.83c77.24,-132.21 184.46,-198.09 320.76,-198.09 42.71,0 82.69,5.9 119.95,17.26l-5.46 369.38zm76.33 347.11c0,-143.12 27.72,-270.33 82.69,-382.1 54.98,-111.76 134.03,-198.54 237.62,-259.88 103.13,-61.33 223.08,-91.77 359.83,-91.77 194.46,0 353.02,59.51 476.14,178.55 122.68,118.58 191.28,280.32 205.36,484.32l2.73 98.59c0,221.26 -61.79,398.45 -184.91,532.03 -123.58,133.57 -288.96,200.36 -496.59,200.36 -207.63,0 -373.47,-66.79 -497.04,-199.91 -124.04,-133.12 -185.83,-313.94 -185.83,-542.93l0 -17.26zm384.82 27.26c0,136.75 25.45,241.25 77.24,313.49 51.34,72.24 124.94,108.58 220.81,108.58 93.14,0 165.83,-35.89 218.08,-107.22 52.7,-71.33 78.6,-185.82 78.6,-343.02 0,-134.03 -25.9,-238.07 -78.6,-311.67 -52.25,-73.61 -125.85,-110.41 -220.81,-110.41 -94.05,0 -166.74,36.8 -218.08,109.95 -51.79,73.15 -77.24,186.73 -77.24,340.3zm1571.1 -733.75l12.26 166.28c102.68,-129.03 240.8,-193.54 413.9,-193.54 152.66,0 266.24,44.98 340.75,134.48 74.51,89.5 112.68,223.53 114.5,401.63l0 930.48 -384.83 0 0 -922.75c0,-81.33 -17.72,-140.85 -53.15,-177.65 -35.44,-36.8 -94.5,-55.43 -177.19,-55.43 -108.14,0 -189.46,46.34 -243.53,138.57l0 1017.26 -384.82 0 0 -1439.33 362.11 0zm1633.33 -354.38l0 354.38 246.25 0 0 283.5 -246.25 0 0 717.85c0,53.16 10.45,91.32 30.9,114.49 20.44,23.17 59.52,34.53 117.22,34.53 42.25,0 79.96,-3.18 113.13,-9.08l0 290.77c-75.42,23.17 -153.11,34.53 -233.08,34.53 -269.87,0 -407.54,-135.85 -412.53,-407.99l0 -775.1 -210.36 0 0 -283.5 210.36 0 0 -354.38 384.36 0zm1323.49 1647.87c-94.96,115.4 -226.26,173.1 -393.91,173.1 -154.48,0 -272.15,-44.52 -353.48,-133.12 -81.32,-88.6 -122.67,-218.54 -124.48,-389.82l0 -943.65 384.82 0 0 930.93c0,149.93 68.15,224.89 204.9,224.89 130.4,0 219.9,-45.43 268.97,-135.84l0 -1019.98 385.73 0 0 1439.33 -362.1 0 -10.45 -145.84z"/>
   <path class="fil0" d="M9196.22 1114.94l-734.66 0 0 463.43 867.78 0 0 359.83 -1335.29 0 0 -1938.19 1338.01 0 0 359.83 -870.5 0 0 408.9 734.66 0 0 346.2zm323.03 823.26l0 -1938.19 624.25 0c171.29,0 325.31,38.62 462.06,116.31 136.76,77.69 243.52,187.18 319.85,328.94 76.79,141.75 115.86,300.31 116.77,476.14l0 89.05c0,177.19 -37.71,336.66 -112.68,477.05 -74.96,140.84 -180.37,250.79 -316.67,330.3 -136.3,79.51 -288.05,119.49 -455.7,120.4l-637.88 0zm467.51 -1578.36l0 1218.53 162.19 0c134.03,0 237.17,-47.71 308.95,-143.12 71.79,-95.41 107.68,-237.16 107.68,-425.71l0 -83.6c0,-187.64 -35.89,-328.48 -107.68,-423.44 -71.78,-94.95 -176.73,-142.66 -314.4,-142.66l-156.74 0zm2815.52 -359.83l0 1268.95c0,144.03 -30.45,268.52 -91.78,373.47 -61.34,105.4 -149.02,185.37 -263.51,240.34 -114.5,54.98 -249.89,82.69 -405.73,82.69 -236.25,0 -422.07,-61.34 -557.92,-183.55 -135.85,-122.67 -204.9,-290.32 -207.63,-503.4l0 -1278.5 469.78 0 0 1287.58c5.45,212.18 104.04,318.04 295.77,318.04 96.32,0 169.93,-26.81 219.45,-79.97 49.52,-53.15 74.51,-139.93 74.51,-259.42l0 -1266.23 467.06 0z"/>
  </g>
 </g>
</svg>
