<?xml version="1.0" encoding="utf-8"?>
<!-- Generator: Adobe Illustrator 23.0.1, SVG Export Plug-In . SVG Version: 6.00 Build 0)  -->
<svg version="1.1" id="Camada_1" xmlns="http://www.w3.org/2000/svg" xmlns:xlink="http://www.w3.org/1999/xlink" x="0px" y="0px"
	 viewBox="0 0 374.9 350.5" style="enable-background:new 0 0 374.9 350.5;" xml:space="preserve">
<style type="text/css">
	.st0{fill-rule:evenodd;clip-rule:evenodd;fill:#30CCB7;stroke:#000000;stroke-width:0.57;stroke-miterlimit:22.93;}
	.st1{fill-rule:evenodd;clip-rule:evenodd;fill:#29BDA7;}
	.st2{fill:none;stroke:#FFFFFF;stroke-width:8.5;stroke-miterlimit:22.93;}
	.st3{fill-rule:evenodd;clip-rule:evenodd;fill:#FFFFFF;}
	.st4{enable-background:new    ;}
	.st5{fill:#FFFFFF;}
	.st6{fill-rule:evenodd;clip-rule:evenodd;fill:#FEFEFE;}
</style>
<title>logobranca</title>
<path class="st0" d="M27,8h318.4c4.7,0,8.5,3.8,8.5,8.5v166.3H18.5V16.5C18.5,11.8,22.3,8,27,8z"/>
<polygon class="st1" points="349.5,8.2 18.5,182.8 348.5,182.8 "/>
<path class="st2" d="M31.5,4.3h307c7.8,0,14.2,6.4,14.2,14.2v167.4 M352.7,185.9v0.3H17.4V18.4c0-7.8,6.4-14.2,14.2-14.2
	 M352.8,186.1v34.9c0,7.8-6.4,14.1-14.2,14.2h-307c-7.8,0-14.1-6.4-14.2-14.2v-34.9H352.8z"/>
<path class="st3" d="M18.5,186.1h333.4v39.3c0,4.7-3.8,8.5-8.5,8.5H27c-4.7,0-8.5-3.8-8.5-8.5L18.5,186.1L18.5,186.1z M185.6,202.5
	c-4.6,0-8.4,3.8-8.4,8.4c0,4.6,3.8,8.4,8.4,8.4s8.4-3.8,8.4-8.4c0,0,0,0,0,0C194,206.2,190.3,202.5,185.6,202.5z"/>
<g class="st4">
	<path class="st5" d="M41,310.3c0,6-1.4,10.9-4.2,14.6s-6.7,5.5-11.7,5.5c-2.1,0-4-0.4-5.7-1.2c-1.7-0.8-3.1-2-4.3-3.5v19.6h-11
		v-56.5h9.9l0.6,4.8c1.2-1.8,2.7-3.2,4.4-4.1c1.7-1,3.7-1.5,5.9-1.5c5.1,0,9,2,11.8,5.9c2.8,3.9,4.2,9.1,4.2,15.6V310.3z M30,309.5
		c0-3.8-0.6-7-1.9-9.4s-3.2-3.6-5.9-3.6c-1.7,0-3.1,0.3-4.2,1c-1.2,0.7-2.1,1.6-2.8,2.9v17.9c0.7,1.2,1.6,2,2.8,2.6
		c1.2,0.6,2.6,0.9,4.3,0.9c2.7,0,4.6-1,5.9-3.1c1.2-2.1,1.9-4.9,1.9-8.5V309.5z"/>
</g>
<g class="st4">
	<path class="st5" d="M69.3,298.2l-4-0.1c-1.6,0-3,0.3-4,1c-1.1,0.7-1.9,1.6-2.4,2.9v27.6h-11v-40.8h10.2l0.5,6c1-2.1,2.2-3.8,3.7-5
		c1.5-1.2,3.3-1.8,5.3-1.8c0.6,0,1.1,0,1.5,0.1c0.5,0.1,0.9,0.2,1.4,0.3L69.3,298.2z"/>
</g>
<g class="st4">
	<path class="st5" d="M72.6,308.8c0-6.1,1.7-11.1,5.1-15c3.4-3.9,8.1-5.8,14.1-5.8c6,0,10.8,1.9,14.2,5.8c3.4,3.9,5.1,8.9,5.1,15
		v0.8c0,6.1-1.7,11.1-5.1,15c-3.4,3.9-8.1,5.8-14.1,5.8c-6,0-10.8-1.9-14.2-5.8c-3.4-3.9-5.1-8.9-5.1-15V308.8z M83.6,309.6
		c0,3.7,0.7,6.7,2,9c1.3,2.3,3.4,3.4,6.3,3.4c2.8,0,4.9-1.1,6.2-3.4c1.3-2.3,2-5.2,2-8.9v-0.8c0-3.6-0.7-6.6-2-8.9
		c-1.3-2.3-3.4-3.4-6.3-3.4c-2.8,0-4.9,1.2-6.2,3.5c-1.3,2.3-2,5.3-2,8.8V309.6z"/>
	<path class="st5" d="M128,288.8l0.5,5.8c1.4-2.1,3-3.7,5-4.9c2-1.2,4.2-1.7,6.7-1.7c4.1,0,7.3,1.3,9.7,4c2.3,2.7,3.5,6.8,3.5,12.6
		v25h-11.1v-25c0-2.9-0.5-5-1.5-6.2c-1-1.2-2.5-1.8-4.6-1.8c-1.6,0-3.1,0.3-4.3,0.9s-2.3,1.5-3.1,2.5v29.5h-11v-40.8H128z"/>
	<path class="st5" d="M174.7,278.8v10h6.9v7.7h-6.9v20.8c0,1.6,0.3,2.7,1,3.4c0.7,0.7,1.5,1,2.6,1c0.6,0,1.1,0,1.5-0.1
		s0.9-0.2,1.5-0.3l0.9,8c-1.1,0.4-2.2,0.7-3.2,0.8c-1,0.2-2.2,0.3-3.4,0.3c-3.8,0-6.7-1-8.8-3.1c-2.1-2.1-3.1-5.4-3.1-9.9v-20.8h-6
		v-7.7h6v-10H174.7z"/>
	<path class="st5" d="M213.4,323.6c-1.3,2.2-2.9,3.9-4.8,5.1c-1.9,1.2-4.2,1.8-6.8,1.8c-4.3,0-7.7-1.5-10.1-4.4
		c-2.4-2.9-3.6-7.4-3.6-13.6v-23.7h11v23.7c0,3.6,0.5,6,1.5,7.3c1,1.3,2.5,2,4.5,2c1.8,0,3.3-0.3,4.5-0.8c1.3-0.6,2.3-1.4,3.1-2.5
		v-29.7h11v40.8h-9.1L213.4,323.6z"/>
</g>
<g class="st4">
	<path class="st5" d="M264.3,305.5h-20.4v15.7h24.2v8.5h-35.2v-54.9H268v8.5h-24.1V297h20.4V305.5z"/>
	<path class="st5" d="M275.8,329.6v-54.9H295c6.7,0,12.2,2.1,16.6,6.4s6.5,9.8,6.5,16.5v9.1c0,6.7-2.2,12.2-6.5,16.5
		c-4.4,4.3-9.9,6.4-16.6,6.4H275.8z M286.9,283.2v38h8.1c3.6,0,6.5-1.4,8.8-4.1c2.2-2.7,3.3-6.2,3.3-10.4v-9.2
		c0-4.2-1.1-7.6-3.3-10.3c-2.2-2.7-5.1-4-8.8-4H286.9z"/>
	<path class="st5" d="M370.5,274.7v36c0,6.2-2,11-6.1,14.5c-4.1,3.5-9.4,5.2-16,5.2c-6.5,0-11.8-1.7-15.9-5.2
		c-4.1-3.5-6.1-8.3-6.1-14.5v-36h11.1v36c0,3.7,1,6.5,2.9,8.4c2,1.9,4.6,2.9,8,2.9c3.4,0,6.1-1,8.1-2.9c2-1.9,3-4.7,3-8.4v-36H370.5
		z"/>
</g>
<line class="st2" x1="160.1" y1="235.6" x2="160.1" y2="265"/>
<line class="st2" x1="212.3" y1="235.6" x2="212.3" y2="265"/>
<path class="st3" d="M223.5,274.4c-43.5-5.6-84.6-2.6-126.4,9.7H84.8c21.1-11.5,47.5-18.1,69.9-21.1c20.4-2.8,44.8-2,68.8,1.9V274.4
	z"/>
<path class="st6" d="M165.8,57.1h40.8c0.9,0,1.6-0.7,1.6-1.6v-8.4c-0.3-0.6-0.7-1.2-1.1-1.7c-1.1-1.4-2.6-2.5-4.3-3.1
	c-1.2-0.4-2.4-0.7-3.6-0.7h-6.1c0-0.2,0-0.3,0-0.5c0-3.4-2.8-6.2-6.2-6.2h-1.3c-3.4,0-6.2,2.8-6.2,6.2c0,0.2,0,0.3,0,0.5h-6.1
	c-2.5,0-4.8,0.9-6.7,2.5c-1,0.9-1.8,1.9-2.4,3.1v8.2C164.2,56.4,164.9,57.1,165.8,57.1L165.8,57.1z M183.1,40.2L183.1,40.2
	c0.3-0.8,1-1.4,1.8-1.8c1.7-0.7,3.7,0.1,4.4,1.8c0.7,1.7-0.1,3.7-1.8,4.4c-0.8,0.3-1.8,0.3-2.6,0c-0.8-0.3-1.4-1-1.8-1.8
	C182.8,42,182.8,41.1,183.1,40.2z"/>
<path class="st6" d="M227.3,59.8L227.3,59.8c-0.2-0.7-0.4-1.4-0.7-2.1l0,0c-0.7-1.6-1.8-3-3.1-4.2c-0.1-0.1-0.2-0.2-0.4-0.3
	c-0.5-0.5-1.1-0.9-1.8-1.2l-0.6-0.3c-0.6-0.3-1.2-0.5-1.9-0.7c-0.2-0.1-0.5-0.2-0.7-0.2c-0.9-0.2-1.8-0.3-2.7-0.3h-5.1v5.2
	c0,2.1-1.7,3.7-3.7,3.7h-40.8c-2.1,0-3.7-1.7-3.7-3.7v-5.2h-5.1c-0.9,0-1.8,0.1-2.7,0.3c-0.2,0-0.5,0.1-0.7,0.2
	c-0.6,0.2-1.3,0.4-1.9,0.7c-0.2,0.1-0.4,0.2-0.6,0.3c-0.6,0.3-1.2,0.8-1.8,1.2c-0.1,0.1-0.3,0.2-0.4,0.3c-2.6,2.3-4.1,5.6-4.1,9
	v78.6c0,4.9,2.9,9.3,7.4,11.2c1.5,0.6,3.1,1,4.7,1h58.6c1.6,0,3.2-0.4,4.7-1c0.7-0.3,1.4-0.7,2.1-1.1c3.3-2.2,5.3-6,5.4-10V62.5
	C227.6,61.6,227.5,60.7,227.3,59.8z M187,112.1h-7.9l-3.6,22.4l-4.3-41.4l-3.1,24.2l-3.8-6.2h-8.5c-0.6,0.1-1.1-0.4-1.2-1
	c-0.1-0.6,0.4-1.1,1-1.2c0.1,0,0.1,0,0.2,0h9.7l1.2,2l4.7-36.6l4.6,43.8l1.4-8.3h9.7c0.6-0.1,1.1,0.4,1.2,1c0.1,0.6-0.4,1.1-1,1.2
	C187.1,112.1,187.1,112.1,187,112.1L187,112.1z M194.5,113.4L194.5,113.4c-1.2,0-2.2-1-2.2-2.2s1-2.2,2.2-2.2c1.2,0,2.2,1,2.2,2.2
	c0,0,0,0,0,0C196.7,112.5,195.7,113.4,194.5,113.4z M203,113.4L203,113.4c-1.2,0-2.2-1-2.2-2.2s1-2.2,2.2-2.2c1.2,0,2.2,1,2.2,2.2
	c0,0,0,0,0,0C205.2,112.5,204.2,113.4,203,113.4C203,113.4,203,113.4,203,113.4z M211.1,113.4L211.1,113.4c-1.2,0-2.2-1-2.2-2.2
	s1-2.2,2.2-2.2c1.2,0,2.2,1,2.2,2.2C213.3,112.5,212.3,113.4,211.1,113.4C211.1,113.4,211.1,113.4,211.1,113.4L211.1,113.4z"/>
<rect x="160.1" y="235.6" class="st5" width="52.2" height="27.8"/>
</svg>
