<svg xmlns="http://www.w3.org/2000/svg" xmlns:xlink="http://www.w3.org/1999/xlink" width="300" height="200" viewBox="0 0 300 200">
  <defs>
    <clipPath id="clip-path">
      <rect id="Rectangle_48" data-name="Rectangle 48" width="300" height="200" transform="translate(550 1369)" fill="#008578" stroke="#707070" stroke-width="1"/>
    </clipPath>
  </defs>
  <g id="Mask_Group_5" data-name="Mask Group 5" transform="translate(-550 -1369)" clip-path="url(#clip-path)">
    <g id="online-course" transform="translate(596.552 1369)">
      <path id="Path_105" data-name="Path 105" d="M103.448,89.655a3.469,3.469,0,0,1-1.469-.328L43.359,61.741a3.45,3.45,0,0,1,0-6.241l58.621-27.586a3.449,3.449,0,0,1,2.938,0L163.538,55.5a3.45,3.45,0,0,1,0,6.241L104.917,89.328a3.469,3.469,0,0,1-1.469.328ZM52.928,58.621,103.448,82.4l50.521-23.776L103.448,34.845Z" fill="#008578"/>
      <path id="Path_106" data-name="Path 106" d="M103.448,117.241a3.453,3.453,0,0,1-1.541-.362L60.528,96.19A3.452,3.452,0,0,1,58.621,93.1V66.734a3.448,3.448,0,0,1,4.914-3.121L103.448,82.4l39.91-18.783a3.452,3.452,0,0,1,4.917,3.121V93.1a3.452,3.452,0,0,1-1.907,3.086l-41.379,20.69a3.453,3.453,0,0,1-1.541.362ZM65.517,90.972l37.931,18.966,37.931-18.966v-18.8L104.917,89.328a3.449,3.449,0,0,1-2.938,0L65.517,72.169Z" fill="#008578"/>
      <path id="Path_107" data-name="Path 107" d="M162.069,62.069H103.448a3.448,3.448,0,0,1,0-6.9h58.621a3.448,3.448,0,0,1,0,6.9Z" fill="#008578"/>
      <path id="Path_108" data-name="Path 108" d="M162.069,93.1a3.45,3.45,0,0,1-3.448-3.448V58.621a3.448,3.448,0,0,1,6.9,0V89.655A3.45,3.45,0,0,1,162.069,93.1Z" fill="#008578"/>
      <path id="Path_109" data-name="Path 109" d="M103.448,68.966A3.45,3.45,0,0,1,100,65.517V51.724a3.448,3.448,0,1,1,6.9,0V65.517A3.45,3.45,0,0,1,103.448,68.966Z" fill="#008578"/>
      <path id="Path_110" data-name="Path 110" d="M155.169,103.448a3.448,3.448,0,0,1-2.866-5.362l6.9-10.345a3.449,3.449,0,1,1,5.738,3.828l-6.9,10.345A3.446,3.446,0,0,1,155.169,103.448Z" fill="#008578"/>
      <path id="Path_111" data-name="Path 111" d="M168.969,103.448a3.446,3.446,0,0,1-2.872-1.534l-6.9-10.345a3.449,3.449,0,1,1,5.738-3.828l6.9,10.345a3.448,3.448,0,0,1-2.866,5.362Z" fill="#008578"/>
      <path id="Path_112" data-name="Path 112" d="M103.448,100A3.45,3.45,0,0,1,100,96.552V86.207a3.448,3.448,0,0,1,6.9,0V96.552A3.45,3.45,0,0,1,103.448,100Z" fill="#008578"/>
      <path id="Path_113" data-name="Path 113" d="M203.448,131.034h-200A3.45,3.45,0,0,1,0,127.586V13.8A13.813,13.813,0,0,1,13.8,0H193.1a13.813,13.813,0,0,1,13.8,13.8v113.79A3.45,3.45,0,0,1,203.448,131.034ZM6.9,124.138H200V13.8a6.9,6.9,0,0,0-6.9-6.9H13.8a6.9,6.9,0,0,0-6.9,6.9Z" fill="#008578"/>
      <path id="Path_114" data-name="Path 114" d="M193.1,158.621H13.8A13.813,13.813,0,0,1,0,144.824V127.586a3.45,3.45,0,0,1,3.448-3.448h200a3.45,3.45,0,0,1,3.448,3.448v17.238A13.813,13.813,0,0,1,193.1,158.621ZM6.9,131.034v13.79a6.9,6.9,0,0,0,6.9,6.9H193.1a6.9,6.9,0,0,0,6.9-6.9v-13.79Z" fill="#008578"/>
      <path id="Path_115" data-name="Path 115" d="M113.793,144.828H93.1a3.448,3.448,0,0,1,0-6.9h20.69a3.448,3.448,0,1,1,0,6.9Z" fill="#008578"/>
      <path id="Path_116" data-name="Path 116" d="M189.655,131.034H17.241a3.45,3.45,0,0,1-3.448-3.448V17.241a3.45,3.45,0,0,1,3.448-3.448H189.655a3.45,3.45,0,0,1,3.448,3.448V127.586A3.45,3.45,0,0,1,189.655,131.034Zm-168.966-6.9H186.207V20.69H20.69Z" fill="#008578"/>
      <path id="Path_117" data-name="Path 117" d="M148.276,200H58.621a10.345,10.345,0,1,1,0-20.69h89.655a10.345,10.345,0,0,1,0,20.69ZM58.621,186.207a3.448,3.448,0,1,0,0,6.9h89.655a3.448,3.448,0,1,0,0-6.9Z" fill="#008578"/>
      <path id="Path_118" data-name="Path 118" d="M141.379,186.207H65.517a3.448,3.448,0,1,1,0-6.9c11.441,0,17.241-8.121,17.241-24.138a3.45,3.45,0,0,1,3.448-3.448H120.69a3.45,3.45,0,0,1,3.448,3.448c0,16.017,5.8,24.138,17.241,24.138a3.448,3.448,0,1,1,0,6.9Zm-59.066-6.9h42.272c-4.248-4.7-6.748-11.707-7.248-20.69H89.562C89.059,167.6,86.562,174.607,82.314,179.31Z" fill="#008578"/>
    </g>
  </g>
</svg>
