<svg xmlns="http://www.w3.org/2000/svg" xmlns:xlink="http://www.w3.org/1999/xlink" width="300" height="200" viewBox="0 0 300 200">
  <defs>
    <clipPath id="clip-path">
      <rect id="Rectangle_47" data-name="Rectangle 47" width="300" height="200" transform="translate(91 1048)" fill="#008578" stroke="#707070" stroke-width="1"/>
    </clipPath>
  </defs>
  <g id="Mask_Group_4" data-name="Mask Group 4" transform="translate(-91 -1048)" clip-path="url(#clip-path)">
    <g id="website" transform="translate(137.552 1044.552)">
      <g id="Group_9" data-name="Group 9">
        <g id="Group_8" data-name="Group 8">
          <path id="Path_95" data-name="Path 95" d="M193.1,3.448H13.8A13.813,13.813,0,0,0,0,17.245V131.034a3.45,3.45,0,0,0,3.448,3.448h200a3.449,3.449,0,0,0,3.448-3.448V17.245A13.812,13.812,0,0,0,193.1,3.448ZM200,127.586H6.9V17.245a6.907,6.907,0,0,1,6.9-6.9H193.1a6.907,6.907,0,0,1,6.9,6.9Z" fill="#008578"/>
        </g>
      </g>
      <g id="Group_11" data-name="Group 11">
        <g id="Group_10" data-name="Group 10">
          <path id="Path_96" data-name="Path 96" d="M203.448,127.586h-200A3.45,3.45,0,0,0,0,131.034v17.238a13.813,13.813,0,0,0,13.8,13.8H193.1a13.813,13.813,0,0,0,13.8-13.8V131.034A3.45,3.45,0,0,0,203.448,127.586ZM200,148.272a6.907,6.907,0,0,1-6.9,6.9H13.8a6.907,6.907,0,0,1-6.9-6.9v-13.79H200v13.79Z" fill="#008578"/>
        </g>
      </g>
      <g id="Group_13" data-name="Group 13">
        <g id="Group_12" data-name="Group 12">
          <path id="Path_97" data-name="Path 97" d="M113.793,141.379H93.1a3.448,3.448,0,1,0,0,6.9h20.69a3.448,3.448,0,1,0,0-6.9Z" fill="#008578"/>
        </g>
      </g>
      <g id="Group_15" data-name="Group 15">
        <g id="Group_14" data-name="Group 14">
          <path id="Path_98" data-name="Path 98" d="M189.655,17.241H17.241a3.45,3.45,0,0,0-3.448,3.448V131.034a3.45,3.45,0,0,0,3.448,3.448H189.655a3.45,3.45,0,0,0,3.448-3.448V20.69A3.45,3.45,0,0,0,189.655,17.241Zm-3.448,110.344H20.69V24.138H186.207V127.586Z" fill="#008578"/>
        </g>
      </g>
      <g id="Group_17" data-name="Group 17">
        <g id="Group_16" data-name="Group 16">
          <path id="Path_99" data-name="Path 99" d="M148.276,182.758H58.621a10.345,10.345,0,0,0,0,20.69h89.655a10.345,10.345,0,1,0,0-20.69Zm0,13.793H58.621a3.448,3.448,0,1,1,0-6.9h89.655a3.448,3.448,0,1,1,0,6.9Z" fill="#008578"/>
        </g>
      </g>
      <g id="Group_19" data-name="Group 19">
        <g id="Group_18" data-name="Group 18">
          <path id="Path_100" data-name="Path 100" d="M141.379,182.758c-11.442,0-17.241-8.121-17.241-24.138a3.45,3.45,0,0,0-3.448-3.448H86.207a3.45,3.45,0,0,0-3.448,3.448c0,16.017-5.8,24.138-17.241,24.138a3.448,3.448,0,1,0,0,6.9h75.862a3.448,3.448,0,1,0,0-6.9Zm-59.066,0c4.245-4.7,6.745-11.707,7.248-20.69h27.776c.5,8.983,3,15.986,7.248,20.69Z" fill="#008578"/>
        </g>
      </g>
      <g id="Group_21" data-name="Group 21">
        <g id="Group_20" data-name="Group 20">
          <path id="Path_101" data-name="Path 101" d="M164.772,105.048l-8.324-8.324,4.631-4.631a3.447,3.447,0,0,0-1.445-5.741L125.152,76.007a3.449,3.449,0,0,0-4.293,4.293L131.2,114.783a3.446,3.446,0,0,0,5.741,1.448l4.876-4.879,8.324,8.328a3.447,3.447,0,0,0,4.876,0l9.752-9.755A3.444,3.444,0,0,0,164.772,105.048Zm-12.19,7.317L145,104.782a4.508,4.508,0,0,0-6.365,0l-2.49,2.49L129.3,84.451,152.12,91.3l-2.669,2.669a3.909,3.909,0,0,0,.007,5.521l8,8Z" fill="#008578"/>
        </g>
      </g>
      <g id="Group_23" data-name="Group 23">
        <g id="Group_22" data-name="Group 22">
          <path id="Path_102" data-name="Path 102" d="M144.827,31.034H48.276a3.45,3.45,0,0,0-3.448,3.448V51.724a3.45,3.45,0,0,0,3.448,3.448h96.551a3.449,3.449,0,0,0,3.448-3.448V34.483A3.449,3.449,0,0,0,144.827,31.034Zm-3.448,17.241H51.724V37.931h89.655Z" fill="#008578"/>
        </g>
      </g>
      <g id="Group_25" data-name="Group 25">
        <g id="Group_24" data-name="Group 24">
          <path id="Path_103" data-name="Path 103" d="M89.655,68.966H62.069a3.45,3.45,0,0,0-3.448,3.448V86.207a3.45,3.45,0,0,0,3.448,3.448H89.655A3.45,3.45,0,0,0,93.1,86.207V72.414A3.45,3.45,0,0,0,89.655,68.966ZM86.207,82.759H65.517v-6.9h20.69Z" fill="#008578"/>
        </g>
      </g>
      <g id="Group_27" data-name="Group 27">
        <g id="Group_26" data-name="Group 26">
          <path id="Path_104" data-name="Path 104" d="M144.827,31.034H48.276a3.45,3.45,0,0,0-3.448,3.448V100a3.45,3.45,0,0,0,3.448,3.448h82.09a3.451,3.451,0,0,0,3.3-4.441L129.3,84.451l14.534,4.362a3.449,3.449,0,0,0,4.438-3.3V34.483A3.45,3.45,0,0,0,144.827,31.034Zm-3.448,49.841-16.231-4.869a3.45,3.45,0,0,0-4.293,4.3l4.876,16.248H51.724V37.931h89.655Z" fill="#008578"/>
        </g>
      </g>
    </g>
  </g>
</svg>
